<?xml version="1.0" standalone="no"?>
<!DOCTYPE svg PUBLIC "-//W3C//DTD SVG 20010904//EN"
 "http://www.w3.org/TR/2001/REC-SVG-20010904/DTD/svg10.dtd">
<svg version="1.0" xmlns="http://www.w3.org/2000/svg"
 width="260.000000pt" height="260.000000pt" viewBox="0 0 260.000000 260.000000"
 preserveAspectRatio="xMidYMid meet">
<metadata>
Created by potrace 1.14, written by Peter Selinger 2001-2017
</metadata>
<g transform="translate(0.000000,260.000000) scale(0.100000,-0.100000)"
fill="#000000" stroke="none">
<path d="M1123 2075 c-273 -49 -448 -194 -484 -402 -23 -131 27 -289 120 -376
65 -61 153 -103 346 -167 234 -77 295 -112 338 -194 30 -57 31 -163 1 -202
-33 -45 -70 -67 -122 -72 -105 -10 -166 40 -227 187 -71 170 -128 227 -239
238 -150 16 -248 -62 -248 -198 0 -174 185 -309 487 -354 269 -40 531 2 697
112 146 96 207 228 186 403 -11 95 -46 166 -112 228 -65 62 -151 106 -323 165
-224 78 -299 124 -339 212 -43 92 -24 212 41 263 21 17 41 22 82 22 49 0 59
-4 87 -32 18 -18 45 -64 60 -103 91 -224 129 -268 244 -282 139 -16 249 80
239 208 -6 65 -24 104 -75 161 -138 153 -475 235 -759 183z"/>
</g>
</svg>
